<?xml version="1.0"?>
<svg width="1280" height="480" xmlns="http://www.w3.org/2000/svg" xmlns:svg="http://www.w3.org/2000/svg">
 <!-- Created with SVG-edit - https://github.com/SVG-Edit/svgedit-->
 <g class="layer">
  <title>fill</title>
  <rect fill="#7fff00" height="204" id="svg_67" stroke="#000000" stroke-opacity="0" stroke-width="40" width="196" x="375" y="164"/>
  <rect fill="#00ffff" height="196" id="svg_68" stroke="#000000" stroke-opacity="0" stroke-width="40" width="199" x="699" y="170"/>
 </g>
 <g class="layer">
  <title>outline</title>
  <rect fill="#000000" height="0" id="svg_69" stroke="#000000" stroke-width="0" width="0" x="109" y="-202"/>
  <rect fill="#000000" fill-opacity="0" height="222.999986" id="svg_70" rx="60" ry="60" stroke="#ffffff" stroke-width="81" width="223.000007" x="363.000002" y="159.000018"/>
  <rect fill="#000000" fill-opacity="0" height="222.999986" id="svg_71" rx="60" ry="60" stroke="#ffffff" stroke-width="81" width="223.000007" x="681.500002" y="157.00001"/>
  <line fill="none" id="svg_72" stroke="#ffffff" stroke-linecap="round" stroke-width="81" x1="100.5" x2="100" y1="381" y2="83.499997"/>
  <line fill="none" id="svg_73" stroke="#ffffff" stroke-linecap="round" stroke-width="81" transform="rotate(60.3365, 194.766, 199.572)" x1="195.016315" x2="194.516315" y1="296.073983" y2="103.070737"/>
  <line fill="none" id="svg_74" stroke="#ffffff" stroke-linecap="round" stroke-width="81" transform="rotate(152.298, 233.266, 295.072)" x1="233.516315" x2="233.016315" y1="391.573983" y2="198.570737"/>
  <line fill="none" id="svg_75" stroke="#ffffff" stroke-linecap="round" stroke-width="81" transform="rotate(90, 613.266, 248.072)" x1="613.516315" x2="613.016315" y1="262.073969" y2="234.070732"/>
  <line fill="none" id="svg_76" stroke="#ffffff" stroke-linecap="round" stroke-width="81" transform="rotate(90, 330.266, 248.572)" x1="330.516315" x2="330.016315" y1="262.573969" y2="234.570732"/>
  <line fill="none" id="svg_77" stroke="#ffffff" stroke-linecap="round" stroke-width="81" x1="905.516315" x2="905.016315" y1="231.073944" y2="102.570741"/>
  <line fill="none" id="svg_78" stroke="#000000" stroke-linecap="round" stroke-width="40" x1="435.016315" x2="434.516315" y1="272.573966" y2="229.070735"/>
  <line fill="none" id="svg_79" stroke="#000000" stroke-linecap="round" stroke-width="40" x1="520.516315" x2="520.016315" y1="272.073966" y2="228.570735"/>
  <line fill="none" id="svg_80" stroke="#000000" stroke-linecap="round" stroke-width="40" x1="750.516315" x2="750.016315" y1="269.573966" y2="226.070735"/>
  <line fill="none" id="svg_81" stroke="#000000" stroke-linecap="round" stroke-width="40" x1="838.766315" x2="838.266315" y1="269.573966" y2="226.070735"/>
  <path d="m1055.379289,380.950524c-43.343485,0.5 -72.168256,-20.69028 -72.173137,-59.793336c-0.004881,-39.103056 0.106598,-77.85441 0.465728,-108.96365c0.359131,-31.10924 25.386714,-55.693503 57.810632,-55.943503c32.423918,-0.25 71.626764,-0.790348 107.686098,-0.277043c36.059334,0.513305 55.253302,29.266172 55.253302,58.288982c0,29.02281 -22.437796,51.667869 -47.20389,51.667869c-24.766093,0 -132.68367,-1.25 -160.094544,-0.618347m57.376522,115.688504c44,0 61,0 95.25,0.25c34.25,0.25 44.75,-21 51.75,-33.5" fill="#000000" fill-opacity="0" id="svg_82" stroke="#ffffff" stroke-width="80"/>
  <circle cx="1201.500148" cy="349.49998" fill="#000000" id="svg_83" r="19.40509" stroke="#ffffff" stroke-linecap="round" stroke-width="40"/>
 </g>
 <g class="layer">
  <title>outline copy</title>
  <rect fill="#000000" height="0" id="svg_84" stroke="#000000" stroke-width="0" width="0" x="109" y="-202"/>
  <rect fill="#000000" fill-opacity="0" height="222.999986" id="svg_85" rx="60" ry="60" stroke="#7fff00" stroke-width="81" width="223.000007" x="363.000002" y="159.000018"/>
  <rect fill="#000000" fill-opacity="0" height="222.999986" id="svg_86" rx="60" ry="60" stroke="#00ffff" stroke-width="81" width="223.000007" x="681.500002" y="157.00001"/>
  <line fill="none" id="svg_87" stroke="#b2b2b2" stroke-linecap="round" stroke-width="81" x1="100.5" x2="100" y1="381" y2="83.499997"/>
  <line fill="none" id="svg_88" stroke="#b2b2b2" stroke-linecap="round" stroke-width="81" transform="rotate(60.3365, 194.766, 199.572)" x1="195.016315" x2="194.516315" y1="296.073983" y2="103.070737"/>
  <line fill="none" id="svg_89" stroke="#b2b2b2" stroke-linecap="round" stroke-width="81" transform="rotate(152.298, 233.266, 295.072)" x1="233.516315" x2="233.016315" y1="391.573983" y2="198.570737"/>
  <line fill="none" id="svg_90" stroke="#7fff00" stroke-linecap="round" stroke-width="81" transform="rotate(90, 613.266, 248.072)" x1="613.516315" x2="613.016315" y1="262.073969" y2="234.070732"/>
  <line fill="none" id="svg_91" stroke="#7fff00" stroke-linecap="round" stroke-width="81" transform="rotate(90, 330.266, 248.572)" x1="330.516315" x2="330.016315" y1="262.573969" y2="234.570732"/>
  <line fill="none" id="svg_92" stroke="#00ffff" stroke-linecap="round" stroke-width="81" x1="905.516315" x2="905.016315" y1="231.073944" y2="102.570741"/>
  <line fill="none" id="svg_93" stroke="#000000" stroke-linecap="round" stroke-width="40" x1="435.016315" x2="434.516315" y1="272.573966" y2="229.070735"/>
  <line fill="none" id="svg_94" stroke="#000000" stroke-linecap="round" stroke-width="40" x1="520.516315" x2="520.016315" y1="272.073966" y2="228.570735"/>
  <line fill="none" id="svg_95" stroke="#000000" stroke-linecap="round" stroke-width="40" x1="750.516315" x2="750.016315" y1="269.573966" y2="226.070735"/>
  <line fill="none" id="svg_96" stroke="#000000" stroke-linecap="round" stroke-width="40" x1="838.766315" x2="838.266315" y1="269.573966" y2="226.070735"/>
  <path d="m1055.379289,381.950524c-43.343485,0.5 -72.168256,-20.69028 -72.173137,-59.793336c-0.004881,-39.103056 0.106598,-77.85441 0.465728,-108.96365c0.359131,-31.10924 25.386714,-55.693503 57.810632,-55.943503c32.423918,-0.25 71.626764,-0.790348 107.686098,-0.277043c36.059334,0.513305 55.253302,29.266172 55.253302,58.288982c0,29.02281 -22.437796,51.667869 -47.20389,51.667869c-24.766093,0 -132.68367,-1.25 -160.094544,-0.618347m57.376522,115.688504c44,0 61,0 95.25,0.25c34.25,0.25 44.75,-21 51.75,-33.5" fill="#000000" fill-opacity="0" id="svg_97" stroke="#aaffd4" stroke-width="80"/>
  <circle cx="1201.500148" cy="349.49998" fill="#000000" id="svg_98" r="19.40509" stroke="#aaffd4" stroke-linecap="round" stroke-width="40"/>
 </g>
 <g class="layer">
  <title>black</title>
  <rect fill="#000000" height="0" id="svg_51" stroke="#000000" stroke-width="0" width="0" x="109" y="-202"/>
  <rect fill="#000000" fill-opacity="0" height="222.999986" id="svg_52" rx="60" ry="60" stroke="#000000" stroke-width="40" width="223.000007" x="364.000002" y="158.000018"/>
  <rect fill="#000000" fill-opacity="0" height="222.999986" id="svg_53" rx="60" ry="60" stroke="#000000" stroke-width="40" width="223.000007" x="682.500002" y="157.00001"/>
  <line fill="none" id="svg_54" stroke="#000000" stroke-linecap="round" stroke-width="40" x1="101.5" x2="101" y1="380" y2="82.499997"/>
  <line fill="none" id="svg_55" stroke="#000000" stroke-linecap="round" stroke-width="40" transform="rotate(60.3365, 195.766, 198.572)" x1="196.016315" x2="195.516315" y1="295.073983" y2="102.070737"/>
  <line fill="none" id="svg_56" stroke="#000000" stroke-linecap="round" stroke-width="40" transform="rotate(152.298, 234.266, 294.072)" x1="234.516315" x2="234.016315" y1="390.573983" y2="197.570737"/>
  <line fill="none" id="svg_57" stroke="#000000" stroke-linecap="round" stroke-width="40" transform="rotate(90, 614.266, 248.072)" x1="614.516315" x2="614.016315" y1="262.073969" y2="234.070732"/>
  <line fill="none" id="svg_58" stroke="#000000" stroke-linecap="round" stroke-width="40" transform="rotate(90, 331.266, 247.572)" x1="331.516315" x2="331.016315" y1="261.573969" y2="233.570732"/>
  <line fill="none" id="svg_59" stroke="#000000" stroke-linecap="round" stroke-width="40" x1="905.516315" x2="905.016315" y1="231.073944" y2="102.570741"/>
  <line fill="none" id="svg_60" stroke="#000000" stroke-linecap="round" stroke-width="40" x1="435.016315" x2="434.516315" y1="272.573966" y2="229.070735"/>
  <line fill="none" id="svg_61" stroke="#000000" stroke-linecap="round" stroke-width="40" x1="520.516315" x2="520.016315" y1="272.073966" y2="228.570735"/>
  <line fill="none" id="svg_62" stroke="#000000" stroke-linecap="round" stroke-width="40" x1="750.516315" x2="750.016315" y1="269.573966" y2="226.070735"/>
  <line fill="none" id="svg_63" stroke="#000000" stroke-linecap="round" stroke-width="40" x1="838.766315" x2="838.266315" y1="269.573966" y2="226.070735"/>
  <path d="m1056.379289,380.950524c-43.343485,0.5 -72.168256,-20.69028 -72.173137,-59.793336c-0.004881,-39.103056 0.106598,-77.85441 0.465728,-108.96365c0.359131,-31.10924 25.386714,-55.693503 57.810632,-55.943503c32.423918,-0.25 71.626764,-0.790348 107.686098,-0.277043c36.059334,0.513305 55.253302,29.266172 55.253302,58.288982c0,29.02281 -22.437796,51.667869 -47.20389,51.667869c-24.766093,0 -132.68367,-1.25 -160.094544,-0.618347m57.376522,115.688504c44,0 61,0 95.25,0.25c34.25,0.25 44.75,-21 51.75,-33.5" fill="#000000" fill-opacity="0" id="svg_64" stroke="#000000" stroke-width="40"/>
  <circle cx="1201.500148" cy="349.49998" fill="#000000" id="svg_65" r="19.40509" stroke="#000000" stroke-linecap="round" stroke-width="22d"/>
 </g>
</svg>